<svg width="54" height="56" viewBox="0 0 54 56" fill="none" xmlns="http://www.w3.org/2000/svg">
<g clip-path="url(#clip0_66812_1409)">
<path d="M27 51.3333C14.5733 51.3333 4.5 40.887 4.5 28C4.5 15.113 14.5733 4.66666 27 4.66666C39.4268 4.66666 49.5 15.113 49.5 28C49.5 40.887 39.4268 51.3333 27 51.3333ZM20.0025 30.73L20.0317 30.7137L21.9893 37.4103C22.2412 38.136 22.5877 38.2667 23.0085 38.206C23.4315 38.1477 23.6542 37.912 23.931 37.6367L26.604 34.958L32.3415 39.3633C33.39 39.963 34.1438 39.6527 34.4048 38.3553L38.133 20.104C38.5448 18.4053 37.8247 17.724 36.5535 18.2653L14.6543 27.0387C13.1602 27.6593 13.1693 28.5273 14.3843 28.9123L20.0025 30.7323V30.73Z" fill="#03053D"/>
</g>
<defs>
<clipPath id="clip0_66812_1409">
<rect width="54" height="56" fill="white"/>
</clipPath>
</defs>
</svg>
